<svg width="323" height="484" viewBox="0 0 323 484" fill="none" xmlns="http://www.w3.org/2000/svg">
<path d="M256.476 478.527C198.752 464.751 155.642 446.293 131.495 392.083C106.054 334.969 165.362 296.011 157.081 234.039C143.497 132.375 -15.7438 122.206 2.9756 21.3613C13.767 -36.7738 41.2427 -69.2967 90.2725 -102.346C160.127 -149.431 226.299 -144.32 305.567 -115.803C428.073 -71.7299 481.821 35.4596 484.279 165.629C487.132 316.75 403.495 513.614 256.476 478.527Z" stroke="#E1DFD6"/>
<path d="M274.31 386.914C233.56 377.189 203.127 364.159 186.08 325.889C168.12 285.569 209.989 258.067 204.143 214.318C194.553 142.548 82.1367 135.37 95.3516 64.1782C102.97 23.1377 122.366 0.178163 156.979 -23.1527C206.292 -56.3929 253.006 -52.7846 308.966 -32.6527C395.449 -1.53953 433.393 74.1309 435.128 166.024C437.142 272.708 378.098 411.684 274.31 386.914Z" fill="#E9E7E0"/>
</svg>
