<svg width="16" height="15" viewBox="0 0 16 15" fill="none" xmlns="http://www.w3.org/2000/svg">
<path d="M14.8155 0.00153584C14.6179 0.0165403 14.4239 0.0649236 14.2412 0.144798H14.2387C14.0633 0.217393 13.2293 0.583579 11.9613 1.13864L7.41748 3.13596C4.15703 4.56858 0.951991 5.97936 0.951991 5.97936L0.990154 5.96395C0.990154 5.96395 0.76918 6.03975 0.538358 6.20486C0.395758 6.29957 0.27305 6.42348 0.17766 6.56912C0.0644027 6.74257 -0.0266951 7.0079 0.00715884 7.28222C0.0625562 7.74605 0.350622 8.02423 0.557439 8.17777C0.766718 8.33323 0.966148 8.40583 0.966148 8.40583H0.971073L3.97669 9.46263C4.11149 9.91426 4.89259 12.5945 5.08032 13.2119C5.19112 13.5806 5.29884 13.8113 5.43364 13.9873C5.49888 14.0772 5.57521 14.1524 5.66692 14.2128C5.7146 14.2417 5.76544 14.2646 5.81834 14.2809L5.78756 14.2732C5.7968 14.2757 5.80418 14.2834 5.81095 14.286C5.83557 14.2931 5.85219 14.2956 5.88359 14.3008C6.35939 14.4511 6.74163 14.1427 6.74163 14.1427L6.76317 14.1248L8.53773 12.4384L11.512 14.8199L11.5797 14.8501C12.1995 15.134 12.8273 14.976 13.1591 14.6972C13.4933 14.4164 13.6232 14.0573 13.6232 14.0573L13.6448 13.9995L15.9431 1.7104C16.0084 1.40718 16.025 1.12322 15.953 0.847619C15.8787 0.568691 15.7072 0.328795 15.4722 0.174992C15.2749 0.049792 15.0461 -0.0106392 14.8155 0.00153584ZM14.7533 1.31852C14.7509 1.35899 14.7582 1.3545 14.741 1.43223V1.4393L12.4642 13.6005C12.4543 13.6179 12.4377 13.6558 12.3922 13.6937C12.3441 13.7335 12.306 13.7586 12.1059 13.6757L8.46818 10.7648L6.27075 12.8553L6.7324 9.77806L12.6759 3.99618C12.9209 3.75848 12.839 3.70837 12.839 3.70837C12.8563 3.4167 12.4691 3.62292 12.4691 3.62292L4.97445 8.46879L4.97199 8.45594L1.37978 7.19356V7.19099L1.37055 7.18906C1.37685 7.18688 1.38301 7.18431 1.38901 7.18135L1.40871 7.17108L1.42779 7.16401C1.42779 7.16401 4.6353 5.75323 7.89574 4.32061C9.52812 3.60301 11.1728 2.88027 12.4377 2.32264C13.7026 1.76822 14.6376 1.36156 14.6905 1.33972C14.741 1.31916 14.717 1.31916 14.7533 1.31916V1.31852Z" fill="#111111"/>
</svg>
