<svg width="12" height="11" viewBox="0 0 12 11" fill="none" xmlns="http://www.w3.org/2000/svg">
<path d="M3.7345 0C1.959 0 0.5 1.457 0.5 3.2345V7.7655C0.5 9.541 1.957 11 3.7345 11H8.2655C10.041 11 11.5 9.543 11.5 7.7655V3.235C11.5 1.459 10.043 0 8.2655 0H3.7345ZM3.7345 1H8.2655C8.55905 0.999605 8.84979 1.05713 9.12107 1.16929C9.39235 1.28144 9.63884 1.44602 9.84641 1.65359C10.054 1.86116 10.2186 2.10765 10.3307 2.37893C10.4429 2.65021 10.5004 2.94095 10.5 3.2345V7.7655C10.5004 8.05905 10.4429 8.34979 10.3307 8.62107C10.2186 8.89235 10.054 9.13884 9.84641 9.34641C9.63884 9.55398 9.39235 9.71856 9.12107 9.83071C8.84979 9.94287 8.55905 10.0004 8.2655 10H3.735C3.44141 10.0005 3.15061 9.94298 2.87927 9.83086C2.60794 9.71873 2.36139 9.55417 2.15377 9.34659C1.94614 9.13901 1.78152 8.8925 1.66933 8.62119C1.55715 8.34988 1.4996 8.05909 1.5 7.7655V3.235C1.49954 2.94141 1.55702 2.65061 1.66914 2.37927C1.78127 2.10794 1.94583 1.86139 2.15341 1.65377C2.36099 1.44614 2.6075 1.28152 2.87881 1.16933C3.15012 1.05715 3.44091 0.999605 3.7345 1V1ZM8.953 2.094C8.89344 2.09374 8.83441 2.10527 8.77933 2.12794C8.72425 2.15062 8.67421 2.18397 8.63209 2.22609C8.58997 2.26821 8.55661 2.31825 8.53394 2.37333C8.51127 2.42841 8.49974 2.48744 8.5 2.547C8.5 2.799 8.701 3 8.953 3C9.0126 3.00033 9.07168 2.98884 9.12682 2.9662C9.18196 2.94356 9.23206 2.91021 9.27423 2.86809C9.3164 2.82596 9.34981 2.7759 9.37251 2.72078C9.39521 2.66567 9.40677 2.60661 9.4065 2.547C9.40677 2.48739 9.39521 2.42833 9.37251 2.37322C9.34981 2.3181 9.3164 2.26804 9.27423 2.22591C9.23206 2.18379 9.18196 2.15044 9.12682 2.1278C9.07168 2.10516 9.0126 2.09367 8.953 2.094V2.094ZM6 2.5C4.35 2.5 3 3.85 3 5.5C3 7.15 4.35 8.5 6 8.5C7.65 8.5 9 7.15 9 5.5C9 3.85 7.65 2.5 6 2.5ZM6 3.5C7.1115 3.5 8 4.3885 8 5.5C8 6.6115 7.1115 7.5 6 7.5C4.8885 7.5 4 6.6115 4 5.5C4 4.3885 4.8885 3.5 6 3.5Z" fill="#9F9F9F"/>
</svg>
